<?xml version="1.0" encoding="UTF-8" standalone="no"?>
<!-- Created with Inkscape (http://www.inkscape.org/) -->

<svg
   version="1.1"
   id="svg55"
   width="210mm"
   height="297mm"
   viewBox="0 0 793.70077 1122.5197"
   sodipodi:docname="hub.svg"
   inkscape:version="1.1.2 (0a00cf5339, 2022-02-04)"
   xmlns:inkscape="http://www.inkscape.org/namespaces/inkscape"
   xmlns:sodipodi="http://sodipodi.sourceforge.net/DTD/sodipodi-0.dtd"
   xmlns="http://www.w3.org/2000/svg"
   xmlns:svg="http://www.w3.org/2000/svg">
  <defs
     id="defs59" />
  <sodipodi:namedview
     id="namedview57"
     pagecolor="#ffffff"
     bordercolor="#666666"
     borderopacity="1.0"
     inkscape:pageshadow="2"
     inkscape:pageopacity="0.0"
     inkscape:pagecheckerboard="0"
     showgrid="false"
     inkscape:zoom="1.1975562"
     inkscape:cx="-232.55694"
     inkscape:cy="369.92001"
     inkscape:window-width="1920"
     inkscape:window-height="1101"
     inkscape:window-x="0"
     inkscape:window-y="32"
     inkscape:window-maximized="1"
     inkscape:current-layer="g61"
     units="mm"
     inkscape:document-units="mm" />
  <g
     inkscape:groupmode="layer"
     inkscape:label="Image"
     id="g61">
    <path
       style="fill:#000000;stroke-width:0.320257"
       d="m 57.845289,245.5488 c -2.092497,-0.23886 -5.25581,-1.07051 -5.751457,-1.51203 -0.27137,-0.24189 -1.084195,-0.59687 -1.806046,-0.78898 -2.171263,-0.57789 -6.313283,-3.54742 -8.835777,-6.33471 -1.478664,-1.63397 -3.427237,-5.03872 -4.276043,-7.4716 l -0.948018,-2.71748 -0.08957,-66.45327 c -0.08882,-65.834238 -0.08353,-66.489082 0.569915,-70.296366 0.537071,-3.130502 0.935508,-4.407207 2.148812,-6.885522 1.307867,-2.671493 1.90216,-3.452431 4.874417,-6.405132 3.743016,-3.718393 5.803841,-4.956766 10.232765,-6.148931 2.332081,-0.627741 3.392843,-0.659867 24.056949,-0.728571 25.875584,-0.08602 33.473404,0.125593 36.698864,1.022218 7.75611,2.156057 14.02521,8.389021 16.51894,16.423757 l 0.74548,2.401923 v 64.548444 64.54843 l -1.04832,2.06498 c -0.57657,1.13575 -1.7565,2.8947 -2.62201,3.90883 -0.86555,1.01412 -2.48122,3.10378 -3.59044,4.64371 -3.89994,5.41432 -9.85712,12.83017 -11.68338,14.54437 -1.96271,1.84211 -2.43889,1.87144 -29.460849,1.81516 -13.537469,-0.0302 -25.117938,-0.10885 -25.734454,-0.17915 z"
       id="path145" />
  </g>
</svg>
